<?xml version="1.0" encoding="UTF-8" standalone="no"?>
<svg width="95px" height="26px" viewBox="0 0 95 26" version="1.1" xmlns="http://www.w3.org/2000/svg" xmlns:xlink="http://www.w3.org/1999/xlink" xmlns:sketch="http://www.bohemiancoding.com/sketch/ns">
    <!-- Generator: Sketch 3.3.2 (12043) - http://www.bohemiancoding.com/sketch -->
    <title>Logo</title>
    <desc>Created with Sketch.</desc>
    <defs></defs>
    <g id="Page-1" stroke="none" stroke-width="1" fill="none" fill-rule="evenodd" sketch:type="MSPage">
        <g id="Home" sketch:type="MSArtboardGroup" transform="translate(-220.000000, -28.000000)" fill="#FFFFFF">
            <g id="Navbar" sketch:type="MSLayerGroup" transform="translate(220.000000, 28.000000)">
                <g id="Logo" sketch:type="MSShapeGroup">
                    <path d="M86.5866667,25.3375 L81.1217778,25.3375 L81.1217778,5.055 L73.1182222,5.055 L73.1182222,0.7745 L94.6613333,0.7745 L94.6613333,5.055 L86.5866667,5.055 L86.5866667,25.3375" id="Fill-1"></path>
                    <path d="M64.9386667,0.7045 L70.4373333,0.7045 L70.4373333,25.3375 L64.9386667,25.3375 L64.9386667,0.7045 Z" id="Fill-2"></path>
                    <path d="M55.264,7.28275 L60.1013333,7.28275 L60.1013333,25.3375 L50.9831111,25.3375 C49.3351111,25.3375 47.9555556,25.12575 46.8408889,24.704 C45.728,24.2805 44.8746667,23.584 44.2826667,22.6145 C43.6924444,21.645 43.3955556,20.3465 43.3955556,18.72775 L43.3955556,7.28275 L48.1973333,7.28275 L48.1973333,18.383 C48.1973333,19.1145 48.2915556,19.70775 48.4782222,20.1645 C48.6631111,20.623 48.9884444,20.9415 49.4506667,21.12525 C49.9164444,21.30725 50.5422222,21.39825 51.3315556,21.39825 L55.264,21.39825 L55.264,7.28275" id="Fill-3"></path>
                    <path d="M31.9466667,25.3375 L27.1431111,25.3375 L27.1431111,7.28275 L35.2871111,7.28275 C36.7733333,7.28275 37.8844444,7.48925 38.6275556,7.89875 C39.3706667,8.31 39.8453333,8.87175 40.0533333,9.57875 C40.2631111,10.28575 40.368,11.2675 40.368,12.52575 L40.368,14.82 L35.7724444,14.82 L35.7724444,13.3815 C35.7724444,12.447 35.7155556,11.82225 35.6,11.51425 C35.4826667,11.20625 35.2622222,10.99625 34.9386667,10.879 C34.6364444,10.8335 34.3697778,10.80025 34.1368889,10.77925 C33.9057778,10.75475 33.5217778,10.7425 32.9902222,10.7425 L31.9466667,10.7425 L31.9466667,25.3375" id="Fill-4"></path>
                    <path d="M0.796444444,15.6425 L0.796444444,0.7045 L6.05155556,0.7045 L6.05155556,15.506 C6.05155556,15.96275 6.07466667,16.42475 6.11911111,16.89375 C6.16711111,17.361 6.25422222,17.89825 6.38222222,18.50375 C6.51022222,19.10925 6.77511111,19.657 7.18222222,20.147 C7.58933333,20.63875 8.16355556,21.015 8.90488889,21.2775 C9.648,21.54 10.576,21.673 11.6906667,21.673 C13.1751111,21.673 14.3182222,21.44375 15.1182222,20.987 C15.9182222,20.53025 16.4746667,19.874 16.7875556,19.0165 C17.1022222,18.16075 17.2586667,16.99 17.2586667,15.506 L17.2586667,0.7045 L22.48,0.7045 L22.48,15.6425 C22.48,16.28125 22.4551111,16.92175 22.4071111,17.5605 C22.3626667,18.201 22.3057778,18.82925 22.2346667,19.44525 C22.048,20.4725 21.376,21.75875 20.2275556,23.3005 C19.072,24.8405 16.2204444,25.61225 11.6551111,25.61225 C7.02044444,25.61225 4.16711111,24.89825 3.08088889,23.4685 C2.00355556,22.044 1.38133333,21.05875 1.23022222,20.525 C1.07911111,19.98775 0.970666667,19.559 0.901333333,19.23875 C0.832,18.92025 0.796444444,18.5545 0.796444444,18.1415 L0.796444444,15.6425" id="Fill-5"></path>
                </g>
            </g>
        </g>
    </g>
</svg>